<svg width="177" height="159" viewBox="0 0 177 159" fill="none" xmlns="http://www.w3.org/2000/svg">
<rect x="39" width="100" height="100" rx="50" fill="url(#paint0_radial)"/>
<path d="M1.42969 136.09V153H4.96875V147.668H8.13281C11.6953 147.668 14.168 145.348 14.168 141.879C14.168 138.398 11.7773 136.09 8.30859 136.09H1.42969ZM4.96875 138.891H7.37109C9.39844 138.891 10.5703 139.969 10.5703 141.891C10.5703 143.824 9.38672 144.902 7.35938 144.902H4.96875V138.891ZM15.9727 153H19.3945V145.98C19.3945 144.211 20.3789 143.18 22.0664 143.18C22.5586 143.18 23.0273 143.262 23.3086 143.379V140.367C23.0742 140.297 22.7344 140.238 22.3359 140.238C20.8594 140.238 19.793 141.105 19.3477 142.699H19.2773V140.438H15.9727V153ZM30.0586 153.27C33.8555 153.27 36.2812 150.844 36.2812 146.707C36.2812 142.629 33.8203 140.168 30.0586 140.168C26.2969 140.168 23.8359 142.641 23.8359 146.707C23.8359 150.832 26.2617 153.27 30.0586 153.27ZM30.0586 150.656C28.3711 150.656 27.3047 149.238 27.3047 146.719C27.3047 144.223 28.3945 142.781 30.0586 142.781C31.7227 142.781 32.8008 144.223 32.8008 146.719C32.8008 149.238 31.7344 150.656 30.0586 150.656ZM38.9648 137.543V140.438H37.1953V143.016H38.9648V149.613C38.9648 152.062 40.1133 153.047 43.0664 153.047C43.7578 153.047 44.3438 152.988 44.6953 152.906V150.387C44.4844 150.422 44.168 150.445 43.8633 150.445C42.8555 150.445 42.3867 149.988 42.3867 149.027V143.016H44.707V140.438H42.3867V137.543H38.9648ZM52.1602 153.27C55.957 153.27 58.3828 150.844 58.3828 146.707C58.3828 142.629 55.9219 140.168 52.1602 140.168C48.3984 140.168 45.9375 142.641 45.9375 146.707C45.9375 150.832 48.3633 153.27 52.1602 153.27ZM52.1602 150.656C50.4727 150.656 49.4062 149.238 49.4062 146.719C49.4062 144.223 50.4961 142.781 52.1602 142.781C53.8242 142.781 54.9023 144.223 54.9023 146.719C54.9023 149.238 53.8359 150.656 52.1602 150.656ZM60.1523 153H63.5742V145.793C63.5742 144.164 64.5469 143.039 66.082 143.039C67.6172 143.039 68.3906 143.977 68.3906 145.617V153H71.8125V144.902C71.8125 141.961 70.2422 140.203 67.4531 140.203C65.5195 140.203 64.1953 141.117 63.5273 142.676H63.457V140.438H60.1523V153ZM86.5078 153.293C90.6562 153.293 93.5508 150.902 93.9492 147.129H90.5039C90.1289 149.133 88.6172 150.363 86.5195 150.363C83.8125 150.363 82.1133 148.137 82.1133 144.527C82.1133 140.965 83.8359 138.727 86.5078 138.727C88.5703 138.727 90.1641 140.086 90.4922 142.16H93.9375C93.668 138.375 90.5742 135.797 86.5078 135.797C81.6094 135.797 78.5039 139.09 78.5039 144.539C78.5039 150 81.5859 153.293 86.5078 153.293ZM100.629 150.727C99.4688 150.727 98.6953 150.141 98.6953 149.203C98.6953 148.312 99.4219 147.738 100.699 147.645L103.348 147.48V148.395C103.348 149.754 102.117 150.727 100.629 150.727ZM99.5039 153.199C101.074 153.199 102.633 152.414 103.336 151.078H103.406V153H106.711V144.363C106.711 141.832 104.613 140.168 101.391 140.168C98.0625 140.168 95.9883 141.844 95.8594 144.281H98.9883C99.1523 143.355 99.9609 142.723 101.238 142.723C102.527 142.723 103.348 143.402 103.348 144.574V145.406L100.184 145.594C97.0547 145.781 95.2969 147.105 95.2969 149.391C95.2969 151.652 97.1133 153.199 99.5039 153.199ZM109.008 153H112.43V136.09H109.008V153ZM120.375 142.699C121.898 142.699 122.941 143.801 123.012 145.406H117.68C117.797 143.836 118.875 142.699 120.375 142.699ZM123.059 149.156C122.742 150.117 121.781 150.738 120.527 150.738C118.781 150.738 117.645 149.508 117.645 147.715V147.504H126.305V146.461C126.305 142.641 123.996 140.168 120.34 140.168C116.625 140.168 114.281 142.77 114.281 146.777C114.281 150.797 116.602 153.27 120.469 153.27C123.574 153.27 125.824 151.617 126.199 149.156H123.059ZM128.074 153H131.496V145.793C131.496 144.164 132.469 143.039 134.004 143.039C135.539 143.039 136.312 143.977 136.312 145.617V153H139.734V144.902C139.734 141.961 138.164 140.203 135.375 140.203C133.441 140.203 132.117 141.117 131.449 142.676H131.379V140.438H128.074V153ZM146.566 153.199C148.418 153.199 149.871 152.227 150.48 150.844H150.539V153H153.914V136.09H150.492V142.594H150.422C149.812 141.199 148.406 140.238 146.59 140.238C143.438 140.238 141.445 142.711 141.445 146.695C141.445 150.715 143.426 153.199 146.566 153.199ZM147.727 142.98C149.426 142.98 150.516 144.434 150.516 146.719C150.516 149.016 149.426 150.445 147.727 150.445C146.004 150.445 144.949 149.027 144.949 146.719C144.949 144.422 146.004 142.98 147.727 142.98ZM161.051 150.727C159.891 150.727 159.117 150.141 159.117 149.203C159.117 148.312 159.844 147.738 161.121 147.645L163.77 147.48V148.395C163.77 149.754 162.539 150.727 161.051 150.727ZM159.926 153.199C161.496 153.199 163.055 152.414 163.758 151.078H163.828V153H167.133V144.363C167.133 141.832 165.035 140.168 161.812 140.168C158.484 140.168 156.41 141.844 156.281 144.281H159.41C159.574 143.355 160.383 142.723 161.66 142.723C162.949 142.723 163.77 143.402 163.77 144.574V145.406L160.605 145.594C157.477 145.781 155.719 147.105 155.719 149.391C155.719 151.652 157.535 153.199 159.926 153.199ZM169.348 153H172.77V145.98C172.77 144.211 173.754 143.18 175.441 143.18C175.934 143.18 176.402 143.262 176.684 143.379V140.367C176.449 140.297 176.109 140.238 175.711 140.238C174.234 140.238 173.168 141.105 172.723 142.699H172.652V140.438H169.348V153Z" fill="black"/>
<defs>
<radialGradient id="paint0_radial" cx="0" cy="0" r="1" gradientUnits="userSpaceOnUse" gradientTransform="translate(109 22) rotate(123.311) scale(83.7616 127.593)">
<stop stop-color="#4D4D4D"/>
<stop offset="1"/>
</radialGradient>
</defs>
</svg>
