<svg width="145" height="50" viewBox="0 0 145 50" fill="none" xmlns="http://www.w3.org/2000/svg">
<rect width="50" height="50" rx="25" fill="url(#paint0_radial)"/>
<path d="M69.0547 8.31738V21H71.709V17.001H74.082C76.7539 17.001 78.6084 15.2607 78.6084 12.6592C78.6084 10.0488 76.8154 8.31738 74.2139 8.31738H69.0547ZM71.709 10.418H73.5107C75.0312 10.418 75.9102 11.2266 75.9102 12.668C75.9102 14.1182 75.0225 14.9268 73.502 14.9268H71.709V10.418ZM79.9619 21H82.5283V15.7354C82.5283 14.4082 83.2666 13.6348 84.5322 13.6348C84.9014 13.6348 85.2529 13.6963 85.4639 13.7842V11.5254C85.2881 11.4727 85.0332 11.4287 84.7344 11.4287C83.627 11.4287 82.8271 12.0791 82.4932 13.2744H82.4404V11.5781H79.9619V21ZM90.5264 21.2021C93.374 21.2021 95.1934 19.3828 95.1934 16.2803C95.1934 13.2217 93.3477 11.376 90.5264 11.376C87.7051 11.376 85.8594 13.2305 85.8594 16.2803C85.8594 19.374 87.6787 21.2021 90.5264 21.2021ZM90.5264 19.2422C89.2607 19.2422 88.4609 18.1787 88.4609 16.2891C88.4609 14.417 89.2783 13.3359 90.5264 13.3359C91.7744 13.3359 92.583 14.417 92.583 16.2891C92.583 18.1787 91.7832 19.2422 90.5264 19.2422ZM97.2061 9.40723V11.5781H95.8789V13.5117H97.2061V18.46C97.2061 20.2969 98.0674 21.0352 100.282 21.0352C100.801 21.0352 101.24 20.9912 101.504 20.9297V19.04C101.346 19.0664 101.108 19.084 100.88 19.084C100.124 19.084 99.7725 18.7412 99.7725 18.0205V13.5117H101.513V11.5781H99.7725V9.40723H97.2061ZM107.103 21.2021C109.95 21.2021 111.77 19.3828 111.77 16.2803C111.77 13.2217 109.924 11.376 107.103 11.376C104.281 11.376 102.436 13.2305 102.436 16.2803C102.436 19.374 104.255 21.2021 107.103 21.2021ZM107.103 19.2422C105.837 19.2422 105.037 18.1787 105.037 16.2891C105.037 14.417 105.854 13.3359 107.103 13.3359C108.351 13.3359 109.159 14.417 109.159 16.2891C109.159 18.1787 108.359 19.2422 107.103 19.2422ZM113.097 21H115.663V15.5947C115.663 14.373 116.393 13.5293 117.544 13.5293C118.695 13.5293 119.275 14.2324 119.275 15.4629V21H121.842V14.9268C121.842 12.7207 120.664 11.4023 118.572 11.4023C117.122 11.4023 116.129 12.0879 115.628 13.2568H115.575V11.5781H113.097V21ZM74.6621 42.2197C77.7734 42.2197 79.9443 40.4268 80.2432 37.5967H77.6592C77.3779 39.0996 76.2441 40.0225 74.6709 40.0225C72.6406 40.0225 71.3662 38.3525 71.3662 35.6455C71.3662 32.9736 72.6582 31.2949 74.6621 31.2949C76.209 31.2949 77.4043 32.3145 77.6504 33.8701H80.2344C80.0322 31.0312 77.7119 29.0977 74.6621 29.0977C70.9883 29.0977 68.6592 31.5674 68.6592 35.6543C68.6592 39.75 70.9707 42.2197 74.6621 42.2197ZM85.2529 40.2949C84.3828 40.2949 83.8027 39.8555 83.8027 39.1523C83.8027 38.4844 84.3477 38.0537 85.3057 37.9834L87.292 37.8604V38.5459C87.292 39.5654 86.3691 40.2949 85.2529 40.2949ZM84.4092 42.1494C85.5869 42.1494 86.7559 41.5605 87.2832 40.5586H87.3359V42H89.8145V35.5225C89.8145 33.624 88.2412 32.376 85.8242 32.376C83.3281 32.376 81.7725 33.6328 81.6758 35.4609H84.0225C84.1455 34.7666 84.752 34.292 85.71 34.292C86.6768 34.292 87.292 34.8018 87.292 35.6807V36.3047L84.9189 36.4453C82.5723 36.5859 81.2539 37.5791 81.2539 39.293C81.2539 40.9893 82.6162 42.1494 84.4092 42.1494ZM91.5371 42H94.1035V29.3174H91.5371V42ZM100.062 34.2744C101.205 34.2744 101.987 35.1006 102.04 36.3047H98.041C98.1289 35.127 98.9375 34.2744 100.062 34.2744ZM102.075 39.1172C101.838 39.8379 101.117 40.3037 100.177 40.3037C98.8672 40.3037 98.0146 39.3809 98.0146 38.0361V37.8779H104.51V37.0957C104.51 34.2305 102.778 32.376 100.036 32.376C97.25 32.376 95.4922 34.3271 95.4922 37.333C95.4922 40.3477 97.2324 42.2021 100.133 42.2021C102.462 42.2021 104.149 40.9629 104.431 39.1172H102.075ZM105.837 42H108.403V36.5947C108.403 35.373 109.133 34.5293 110.284 34.5293C111.436 34.5293 112.016 35.2324 112.016 36.4629V42H114.582V35.9268C114.582 33.7207 113.404 32.4023 111.312 32.4023C109.862 32.4023 108.869 33.0879 108.368 34.2568H108.315V32.5781H105.837V42ZM119.706 42.1494C121.095 42.1494 122.185 41.4199 122.642 40.3828H122.686V42H125.217V29.3174H122.65V34.1953H122.598C122.141 33.1494 121.086 32.4287 119.724 32.4287C117.359 32.4287 115.865 34.2832 115.865 37.2715C115.865 40.2861 117.351 42.1494 119.706 42.1494ZM120.576 34.4854C121.851 34.4854 122.668 35.5752 122.668 37.2891C122.668 39.0117 121.851 40.084 120.576 40.084C119.284 40.084 118.493 39.0205 118.493 37.2891C118.493 35.5664 119.284 34.4854 120.576 34.4854ZM130.569 40.2949C129.699 40.2949 129.119 39.8555 129.119 39.1523C129.119 38.4844 129.664 38.0537 130.622 37.9834L132.608 37.8604V38.5459C132.608 39.5654 131.686 40.2949 130.569 40.2949ZM129.726 42.1494C130.903 42.1494 132.072 41.5605 132.6 40.5586H132.652V42H135.131V35.5225C135.131 33.624 133.558 32.376 131.141 32.376C128.645 32.376 127.089 33.6328 126.992 35.4609H129.339C129.462 34.7666 130.068 34.292 131.026 34.292C131.993 34.292 132.608 34.8018 132.608 35.6807V36.3047L130.235 36.4453C127.889 36.5859 126.57 37.5791 126.57 39.293C126.57 40.9893 127.933 42.1494 129.726 42.1494ZM136.792 42H139.358V36.7354C139.358 35.4082 140.097 34.6348 141.362 34.6348C141.731 34.6348 142.083 34.6963 142.294 34.7842V32.5254C142.118 32.4727 141.863 32.4287 141.564 32.4287C140.457 32.4287 139.657 33.0791 139.323 34.2744H139.271V32.5781H136.792V42Z" fill="black"/>
<defs>
<radialGradient id="paint0_radial" cx="0" cy="0" r="1" gradientUnits="userSpaceOnUse" gradientTransform="translate(35 11) rotate(123.311) scale(41.8808 63.7963)">
<stop stop-color="#4D4D4D"/>
<stop offset="1"/>
</radialGradient>
</defs>
</svg>
