<svg width="15" height="18" viewBox="0 0 15 18" fill="none" xmlns="http://www.w3.org/2000/svg">
<path d="M5.97347 1L2.90935 4.02499M2.90935 4.02499L5.97347 7.04997M2.90935 4.02499L7.5055 4.16606C8.91474 4.16724 10.2854 4.62053 11.411 5.45763C12.5366 6.29473 13.3561 7.4703 13.7461 8.8072C14.1361 10.1441 14.0755 11.5699 13.5732 12.8698C13.071 14.1697 12.1545 15.2733 10.9618 16.0142C9.76901 16.7552 8.36465 17.0934 6.96027 16.9778C5.5559 16.8623 4.2276 16.2993 3.1755 15.3737C2.12341 14.4481 1.40452 13.21 1.12715 11.846C0.849782 10.482 1.02896 9.06592 1.63769 7.81117" stroke="black" stroke-linecap="round" stroke-linejoin="round"/>
</svg>
