<svg width="16" height="16" viewBox="0 0 16 16" fill="none" xmlns="http://www.w3.org/2000/svg">
<path d="M6.52078 8.64492C6.82628 9.05334 7.21604 9.39128 7.66363 9.63582C8.11122 9.88035 8.60616 10.0258 9.11489 10.0622C9.62362 10.0986 10.1342 10.0252 10.6121 9.84698C11.09 9.66872 11.5239 9.38978 11.8845 9.02906L14.0186 6.89495C14.6665 6.22413 15.025 5.32566 15.0169 4.39306C15.0088 3.46047 14.6347 2.56837 13.9753 1.9089C13.3158 1.24943 12.4237 0.875365 11.4911 0.867261C10.5585 0.859157 9.66006 1.21767 8.98923 1.86558L7.76567 3.08202M9.3664 7.2222C9.0609 6.81378 8.67113 6.47584 8.22355 6.2313C7.77596 5.98676 7.28101 5.84135 6.77228 5.80491C6.26355 5.76848 5.75293 5.84188 5.27507 6.02014C4.7972 6.1984 4.36326 6.47734 4.00267 6.83806L1.86857 8.97216C1.22066 9.64299 0.862148 10.5415 0.870252 11.4741C0.878356 12.4066 1.25243 13.2987 1.91189 13.9582C2.57136 14.6177 3.46346 14.9918 4.39606 14.9999C5.32865 15.008 6.22712 14.6495 6.89794 14.0015L8.11439 12.7851" stroke="black" stroke-linecap="round" stroke-linejoin="round"/>
</svg>
