<svg width="39" height="34" viewBox="0 0 39 34" fill="none" xmlns="http://www.w3.org/2000/svg">
<g opacity="0.4">
<path d="M16.4461 2.70183L1.47377 27.6969C1.16508 28.2315 1.00174 28.8376 1.00001 29.4549C0.998285 30.0722 1.15823 30.6793 1.46392 31.2156C1.76962 31.7519 2.21041 32.1988 2.74246 32.5119C3.2745 32.8249 3.87924 32.9932 4.49652 33H34.4411C35.0584 32.9932 35.6632 32.8249 36.1952 32.5119C36.7273 32.1988 37.1681 31.7519 37.4737 31.2156C37.7794 30.6793 37.9394 30.0722 37.9377 29.4549C37.9359 28.8376 37.7726 28.2315 37.4639 27.6969L22.4916 2.70183C22.1765 2.18232 21.7328 1.75279 21.2033 1.4547C20.6738 1.1566 20.0765 1 19.4688 1C18.8612 1 18.2639 1.1566 17.7344 1.4547C17.2049 1.75279 16.7612 2.18232 16.4461 2.70183V2.70183Z" stroke="black" stroke-width="2" stroke-linecap="round" stroke-linejoin="round"/>
<path d="M19.4688 11.7878V18.8586" stroke="black" stroke-width="2" stroke-linecap="round" stroke-linejoin="round"/>
<path d="M19.4688 25.9293H19.4859" stroke="black" stroke-width="2" stroke-linecap="round" stroke-linejoin="round"/>
</g>
</svg>
