<?xml version="1.0" standalone="no"?>
<!DOCTYPE svg PUBLIC "-//W3C//DTD SVG 20010904//EN"
 "http://www.w3.org/TR/2001/REC-SVG-20010904/DTD/svg10.dtd">
<svg version="1.0" xmlns="http://www.w3.org/2000/svg"
 width="700.000000pt" height="700.000000pt" viewBox="0 0 700.000000 700.000000"
 preserveAspectRatio="xMidYMid meet">
<metadata>
Created by potrace 1.14, written by Peter Selinger 2001-2017
</metadata>
<g transform="translate(0.000000,700.000000) scale(0.100000,-0.100000)"
fill="#000000" stroke="none">
<path d="M3335 5674 c-313 -33 -546 -98 -800 -224 -441 -218 -774 -553 -991
-995 -563 -1153 -26 -2533 1169 -3000 124 -49 286 -93 437 -120 124 -22 445
-31 587 -16 750 79 1400 535 1734 1216 249 508 288 1099 110 1645 -180 551
-577 1010 -1096 1268 -303 151 -585 219 -930 226 -99 2 -198 2 -220 0z"/>
</g>
</svg>
