<?xml version="1.0" standalone="no"?>
<!DOCTYPE svg PUBLIC "-//W3C//DTD SVG 20010904//EN"
 "http://www.w3.org/TR/2001/REC-SVG-20010904/DTD/svg10.dtd">
<svg version="1.0" xmlns="http://www.w3.org/2000/svg"
 width="700.000000pt" height="700.000000pt" viewBox="0 0 700.000000 700.000000"
 preserveAspectRatio="xMidYMid meet">
<metadata>
Created by potrace 1.14, written by Peter Selinger 2001-2017
</metadata>
<g transform="translate(0.000000,700.000000) scale(0.100000,-0.100000)"
fill="#000000" stroke="none">
<path d="M3350 5743 c-966 -73 -1786 -755 -2024 -1683 -268 -1046 209 -2113
1163 -2599 325 -166 655 -244 1031 -243 271 0 461 30 714 113 340 111 622 285
882 544 299 297 494 639 599 1049 88 347 89 767 1 1113 -218 860 -913 1512
-1781 1673 -190 35 -403 47 -585 33z"/>
</g>
</svg>
