<svg width="100" height="100" viewBox="0 0 100 100" fill="none" xmlns="http://www.w3.org/2000/svg">
<path d="M52.2409 30.1164L54.6136 30.9038C54.8517 30.1865 54.7525 29.4001 54.3438 28.7643C53.935 28.1286 53.2607 27.7119 52.5093 27.6308L52.2409 30.1164ZM69.0556 56.3044L71.4283 57.0919C71.6664 56.3746 71.5672 55.5881 71.1585 54.9524C70.7497 54.3166 70.0754 53.9 69.324 53.8188L69.0556 56.3044ZM49.8682 29.3289C49.1271 31.5617 48.727 33.947 48.727 36.4208H53.727C53.727 34.489 54.0391 32.6351 54.6136 30.9038L49.8682 29.3289ZM48.727 36.4208C48.727 48.0235 57.5072 57.5721 68.7872 58.7899L69.324 53.8188C60.5553 52.8721 53.727 45.4422 53.727 36.4208H48.727ZM50.0694 72.5C60.0216 72.5 68.4585 66.0403 71.4283 57.0919L66.6829 55.5169C64.3713 62.4817 57.8032 67.5 50.0694 67.5V72.5ZM27.5694 49.9999C27.5694 62.4264 37.643 72.5 50.0694 72.5V67.5C40.4044 67.5 32.5694 59.665 32.5694 49.9999H27.5694ZM50.0694 27.4998C37.643 27.4998 27.5694 37.5735 27.5694 49.9999H32.5694C32.5694 40.3349 40.4044 32.4998 50.0694 32.4998V27.4998ZM52.5093 27.6308C51.7071 27.5442 50.893 27.4998 50.0694 27.4998V32.4998C50.7134 32.4998 51.3483 32.5345 51.9726 32.6019L52.5093 27.6308Z" fill="black"/>
</svg>
