<svg width="100" height="100" viewBox="0 0 100 100" fill="none" xmlns="http://www.w3.org/2000/svg">
<path d="M62.5 50.5687C64.7556 48.6103 66.1819 45.7216 66.1819 42.4999C66.1819 36.6005 61.3995 31.8181 55.5001 31.8181C51.825 31.8181 48.5833 33.6741 46.6613 36.5" stroke="black" stroke-width="5" stroke-linecap="round" stroke-linejoin="round"/>
<path d="M55.4999 19V23.2727" stroke="black" stroke-width="5" stroke-linecap="round" stroke-linejoin="round"/>
<path d="M38.8786 25.879L41.9122 28.9126" stroke="black" stroke-width="5" stroke-linecap="round" stroke-linejoin="round"/>
<path d="M74.7273 42.4999H79" stroke="black" stroke-width="5" stroke-linecap="round" stroke-linejoin="round"/>
<path d="M69.088 28.9126L72.1216 25.879" stroke="black" stroke-width="5" stroke-linecap="round" stroke-linejoin="round"/>
<path d="M62.5034 51H59.3542C58.4192 47.3775 56.487 44.09 53.7774 41.511C51.0677 38.932 47.6892 37.165 44.0257 36.4107C40.3622 35.6564 36.5607 35.9451 33.053 37.244C29.5454 38.5429 26.4723 40.7998 24.1829 43.7585C21.8936 46.7171 20.4798 50.2587 20.1022 53.9809C19.7246 57.7031 20.3983 61.4566 22.0468 64.8149C23.6953 68.1732 26.2525 71.0017 29.4278 72.9789C32.6031 74.9561 36.2692 76.0028 40.0095 76H62.5034C65.8177 76 68.9963 74.683 71.3398 72.3388C73.6834 69.9946 75 66.8152 75 63.5C75 60.1848 73.6834 57.0054 71.3398 54.6612C68.9963 52.317 65.8177 51 62.5034 51Z" stroke="black" stroke-width="5" stroke-linecap="round" stroke-linejoin="round"/>
</svg>
