<svg width="100" height="100" viewBox="0 0 100 100" fill="none" xmlns="http://www.w3.org/2000/svg">
<path d="M64.5034 45H61.3542C60.4192 41.3775 58.487 38.09 55.7774 35.511C53.0677 32.932 49.6892 31.165 46.0257 30.4107C42.3622 29.6564 38.5607 29.9451 35.053 31.244C31.5454 32.5429 28.4723 34.7998 26.1829 37.7585C23.8936 40.7171 22.4798 44.2587 22.1022 47.9809C21.7246 51.7031 22.3983 55.4566 24.0468 58.8149C25.6953 62.1732 28.2525 65.0017 31.4278 66.9789C34.6031 68.9561 38.2692 70.0028 42.0095 70H64.5034C67.8177 70 70.9963 68.683 73.3398 66.3388C75.6834 63.9946 77 60.8152 77 57.5C77 54.1848 75.6834 51.0054 73.3398 48.6612C70.9963 46.317 67.8177 45 64.5034 45Z" stroke="black" stroke-width="5" stroke-linecap="round" stroke-linejoin="round"/>
</svg>
