<svg width="100" height="100" viewBox="0 0 100 100" fill="none" xmlns="http://www.w3.org/2000/svg">
<path d="M71.7129 55.7273C74.3418 55.7273 76.8629 54.6827 78.7218 52.8233C80.5807 50.9639 81.625 48.4421 81.625 45.8125C81.625 43.1829 80.5807 40.6611 78.7218 38.8017C76.8629 36.9423 74.3418 35.8977 71.7129 35.8977H69.2151C68.4734 33.0244 66.9408 30.4168 64.7916 28.3712C62.6423 26.3256 59.9626 24.924 57.0568 24.3258C54.1509 23.7275 51.1356 23.9565 48.3534 24.9867C45.5712 26.0169 43.1337 27.8071 41.3178 30.1539C40.1868 31.6156 39.3252 33.2566 38.7638 35" stroke="black" stroke-width="5" stroke-linecap="round" stroke-linejoin="round"/>
<path d="M60.5034 51H57.3542C56.4192 47.3775 54.487 44.09 51.7774 41.511C49.0677 38.932 45.6892 37.165 42.0257 36.4107C38.3622 35.6564 34.5607 35.9451 31.053 37.244C27.5454 38.5429 24.4723 40.7998 22.1829 43.7585C19.8936 46.7171 18.4798 50.2587 18.1022 53.9809C17.7246 57.7031 18.3983 61.4566 20.0468 64.8149C21.6953 68.1732 24.2525 71.0017 27.4278 72.9789C30.6031 74.9561 34.2692 76.0028 38.0095 76H60.5034C63.8177 76 66.9963 74.683 69.3398 72.3388C71.6834 69.9946 73 66.8152 73 63.5C73 60.1848 71.6834 57.0054 69.3398 54.6612C66.9963 52.317 63.8177 51 60.5034 51Z" stroke="black" stroke-width="5" stroke-linecap="round" stroke-linejoin="round"/>
</svg>
