<svg width="100" height="100" viewBox="0 0 100 100" fill="none" xmlns="http://www.w3.org/2000/svg">
<path d="M72.2931 55.7103C74.7104 55.5686 77.0002 54.5454 78.7218 52.8233C80.5807 50.9639 81.625 48.4421 81.625 45.8125C81.625 43.1829 80.5807 40.6611 78.7218 38.8017C76.8629 36.9423 74.3418 35.8977 71.7129 35.8977H69.2151C68.4734 33.0244 66.9408 30.4168 64.7916 28.3712C62.6423 26.3256 59.9626 24.924 57.0567 24.3258C54.1509 23.7275 51.1356 23.9565 48.3534 24.9867C45.5712 26.0169 43.1337 27.8071 41.3178 30.1539C39.8673 32.0284 38.9993 33.698 38.5 36" stroke="black" stroke-width="5" stroke-linecap="round" stroke-linejoin="round"/>
<path d="M66.5153 74.9497C69.1434 73.7987 71.2956 71.7786 72.6105 69.2285C73.9255 66.6784 74.3232 63.7536 73.7368 60.945C73.1505 58.1364 71.6158 55.615 69.3904 53.8041C67.165 51.9931 64.3843 51.0028 61.5152 50.9994H58.3652C57.5727 47.9307 56.0623 45.0943 53.9584 42.7239C51.8545 40.3535 49.2174 38.517 46.2644 37.3659C43.3115 36.2147 40.1272 35.7818 36.9741 36.1029C33.821 36.424 30.7894 37.4898 28.1291 39.2125C25.4687 40.9353 23.2559 43.2656 21.673 46.0114C20.0901 48.7572 19.1824 51.8399 19.0248 55.0054C18.8671 58.1708 19.464 61.3285 20.7663 64.218C22.0685 67.1075 24.0388 69.6461 26.5148 71.6247" stroke="black" stroke-width="5" stroke-linecap="round" stroke-linejoin="round"/>
<path d="M37 75V80.0001" stroke="black" stroke-width="5" stroke-linecap="round" stroke-linejoin="round"/>
<path d="M57.0002 75V80.0001" stroke="black" stroke-width="5" stroke-linecap="round" stroke-linejoin="round"/>
<path d="M47 78V83.0001" stroke="black" stroke-width="5" stroke-linecap="round" stroke-linejoin="round"/>
</svg>
