<svg width="100" height="100" viewBox="0 0 100 100" fill="none" xmlns="http://www.w3.org/2000/svg">
<path d="M66.5153 74.9497C69.1434 73.7987 71.2956 71.7786 72.6105 69.2285C73.9255 66.6784 74.3232 63.7536 73.7368 60.945C73.1505 58.1364 71.6158 55.615 69.3904 53.8041C67.165 51.9931 64.3843 51.0028 61.5152 50.9994H58.3652C57.5727 47.9307 56.0623 45.0943 53.9584 42.7239C51.8545 40.3535 49.2174 38.517 46.2644 37.3659C43.3115 36.2147 40.1272 35.7818 36.9741 36.1029C33.821 36.424 30.7894 37.4898 28.1291 39.2125C25.4687 40.9353 23.2559 43.2656 21.673 46.0114C20.0901 48.7572 19.1824 51.8399 19.0248 55.0054C18.8671 58.1708 19.464 61.3285 20.7663 64.218C22.0685 67.1075 24.0388 69.6461 26.5148 71.6247" stroke="black" stroke-width="5" stroke-linecap="round" stroke-linejoin="round"/>
<path d="M62 50.9771C64.5428 49.0246 66.1819 45.9536 66.1819 42.4999C66.1819 36.6005 61.3995 31.8181 55.5001 31.8181C51.4072 31.8181 48.2935 33.6201 46.5 37" stroke="black" stroke-width="5" stroke-linecap="round" stroke-linejoin="round"/>
<path d="M55.4999 19V23.2727" stroke="black" stroke-width="5" stroke-linecap="round" stroke-linejoin="round"/>
<path d="M38.8786 25.879L41.9122 28.9126" stroke="black" stroke-width="5" stroke-linecap="round" stroke-linejoin="round"/>
<path d="M74.7273 42.4999H79" stroke="black" stroke-width="5" stroke-linecap="round" stroke-linejoin="round"/>
<path d="M69.088 28.9126L72.1216 25.879" stroke="black" stroke-width="5" stroke-linecap="round" stroke-linejoin="round"/>
<path d="M37 75V80.0001" stroke="black" stroke-width="5" stroke-linecap="round" stroke-linejoin="round"/>
<path d="M57.0002 75V80.0001" stroke="black" stroke-width="5" stroke-linecap="round" stroke-linejoin="round"/>
<path d="M47 78V83.0001" stroke="black" stroke-width="5" stroke-linecap="round" stroke-linejoin="round"/>
</svg>
