<svg width="100" height="100" viewBox="0 0 100 100" fill="none" xmlns="http://www.w3.org/2000/svg">
<path d="M66.9923 62.7288C70.0287 62.1122 72.7277 60.3894 74.5653 57.8948C76.4029 55.4002 77.2481 52.3118 76.9367 49.2292C76.6253 46.1465 75.1796 43.2895 72.8803 41.2128C70.5809 39.1361 67.5919 37.9878 64.4936 37.9909H61.3451C60.5173 34.7858 58.9064 31.8364 56.6572 29.4076C54.4079 26.9788 51.5907 25.1466 48.4585 24.0754C45.3263 23.0043 41.9771 22.7278 38.7116 23.2707C35.4461 23.8136 32.3666 25.159 29.7494 27.186C27.1323 29.2131 25.0595 31.8583 23.7172 34.8842C22.3749 37.9102 21.8051 41.2221 22.0588 44.5227C22.3126 47.8233 23.3821 51.0092 25.1712 53.7943C26.9604 56.5795 29.4132 58.8768 32.3094 60.4799" stroke="black" stroke-width="5" stroke-linecap="round" stroke-linejoin="round"/>
<path d="M51.9997 47.986L42.0047 62.9786H56.9973L47.0022 77.9713" stroke="black" stroke-width="5" stroke-linecap="round" stroke-linejoin="round"/>
</svg>
