<svg width="100" height="100" viewBox="0 0 100 100" fill="none" xmlns="http://www.w3.org/2000/svg">
<path d="M69.5147 63.9493C72.1428 62.7982 74.295 60.7782 75.6099 58.2281C76.9248 55.6781 77.3225 52.7533 76.7362 49.9447C76.1498 47.1362 74.6152 44.6148 72.3898 42.8039C70.1644 40.9929 67.3838 40.0026 64.5147 39.9993H61.3647C60.5722 36.9306 59.0618 34.0941 56.958 31.7238C54.8541 29.3534 52.2171 27.517 49.2641 26.3658C46.3112 25.2147 43.127 24.7818 39.9739 25.1029C36.8209 25.424 33.7892 26.4898 31.129 28.2125C28.4687 29.9352 26.2559 32.2655 24.673 35.0113C23.0901 37.757 22.1824 40.8397 22.0248 44.0051C21.8671 47.1706 22.464 50.3282 23.7662 53.2176C25.0685 56.1071 27.0388 58.6457 29.5147 60.6243" stroke="black" stroke-width="5" stroke-linecap="round" stroke-linejoin="round"/>
<path d="M39.5148 59.9993H39.5392" stroke="black" stroke-width="5" stroke-linecap="round" stroke-linejoin="round"/>
<path d="M39.5148 69.9993H39.5392" stroke="black" stroke-width="5" stroke-linecap="round" stroke-linejoin="round"/>
<path d="M49.5148 64.9993H49.5391" stroke="black" stroke-width="5" stroke-linecap="round" stroke-linejoin="round"/>
<path d="M49.5148 74.9993H49.5391" stroke="black" stroke-width="5" stroke-linecap="round" stroke-linejoin="round"/>
<path d="M59.5148 59.9993H59.5391" stroke="black" stroke-width="5" stroke-linecap="round" stroke-linejoin="round"/>
<path d="M59.5148 69.9993H59.5391" stroke="black" stroke-width="5" stroke-linecap="round" stroke-linejoin="round"/>
</svg>
